<svg width="407" height="70" viewBox="0 0 407 70" fill="none" xmlns="http://www.w3.org/2000/svg">
<path d="M35.477 0C29.3814 0.000130001 26.2931 7.05634 21.2343 7.05634C16.1756 7.05634 7.3481 -3.72264 1.9558 1.66685C-3.43651 7.05634 7.07015 14.859 7.07015 21.3357C7.07015 27.8124 0.781889 28.7707 0.732784 34.6705C0.683679 40.5704 7.07009 41.52 7.07015 48.2832C7.07021 55.0463 -4.49271 60.7846 1.9558 67.7854C8.4043 74.7862 14.4979 62.9515 21.0234 62.9515C27.5489 62.9515 30.6373 68.9521 35.477 68.9521C40.3168 68.9521 42.4099 63.0724 49.1658 63.0724C55.9218 63.0724 61.5492 74.1189 68.1089 67.0631C74.6686 60.0073 63.2169 55.0463 63.2169 48.2832C63.2169 41.52 69.7682 40.5126 69.721 34.6705C69.6738 28.8284 63.2169 27.4175 63.2169 21.3357C63.2169 15.2539 73.7141 7.28043 68.1089 1.94466C62.5036 -3.3911 56.2242 7.05634 49.1524 7.05634C42.0805 7.05634 41.5726 -0.00013 35.477 0Z" fill="white"/>
<path d="M396.212 19.5508C400.462 19.5508 403.265 20.9523 404.621 23.7554C406.023 26.5584 406.723 30.2657 406.723 34.8772V54.0013H397.907V34.8772C397.907 31.5316 397.636 29.0902 397.094 27.5531C396.596 25.9707 395.466 25.1795 393.703 25.1795C391.849 25.1795 390.154 26.2872 388.616 28.5025C387.079 30.7178 386.311 35.2163 386.311 41.9979V54.0013H377.495V34.8772C377.495 31.5316 377.223 29.0902 376.681 27.5531C376.184 25.9707 375.053 25.1795 373.29 25.1795C371.436 25.1795 369.741 26.2872 368.204 28.5025C366.667 30.7178 365.898 35.2163 365.898 41.9979V54.0013H357.082V20.0933H365.898V25.9255C368.068 21.6757 371.369 19.5508 375.799 19.5508C378.693 19.5508 380.908 20.2515 382.445 21.6531C383.982 23.0546 385.045 24.9535 385.633 27.3496C386.718 24.7274 388.142 22.7833 389.905 21.5174C391.713 20.2063 393.816 19.5508 396.212 19.5508Z" fill="white"/>
<path d="M352.794 27.2818C350.082 27.2818 347.889 27.7565 346.216 28.7059C344.544 29.6102 343.278 31.2151 342.419 33.5209C341.605 35.8266 341.198 39.014 341.198 43.0829V54.0013H332.382V20.0933H341.198V26.3324C342.283 23.9814 343.752 22.2634 345.606 21.1784C347.505 20.0933 349.856 19.5508 352.659 19.5508H352.794V27.2818Z" fill="white"/>
<path d="M309.498 19.8936C313.747 19.8936 317.319 20.9334 320.212 23.0131C323.151 25.0476 324.62 28.4384 324.62 33.1855V54.005H315.804V48.7832C314.177 50.682 312.21 52.1514 309.904 53.1912C307.599 54.1859 305.27 54.6832 302.919 54.6832C299.981 54.6832 297.517 53.8694 295.527 52.2418C293.583 50.569 292.611 48.1728 292.611 45.0533C292.611 42.1146 293.357 39.8993 294.849 38.4073C296.341 36.8702 298.104 35.8755 300.139 35.4234C302.173 34.9713 304.796 34.6096 308.006 34.3384C310.809 34.1123 312.798 33.8411 313.973 33.5246C315.194 33.1629 315.804 32.4169 315.804 31.2866C315.804 29.433 315.217 28.1445 314.041 27.4211C312.911 26.6978 311.532 26.3361 309.904 26.3361C308.232 26.3361 306.649 26.743 305.157 27.5568C303.665 28.3253 302.716 29.8851 302.309 32.2361L293.968 30.405C294.51 26.7882 296.273 24.1434 299.257 22.4706C302.286 20.7526 305.7 19.8936 309.498 19.8936ZM301.427 45.0533C301.427 46.4548 301.925 47.5851 302.919 48.4441C303.959 49.2579 305.248 49.6648 306.785 49.6648C308.232 49.6648 309.633 49.2353 310.989 48.3763C312.391 47.5173 313.544 46.1836 314.448 44.3751C315.352 42.5667 315.804 40.3288 315.804 37.6614V37.1188C315.217 37.5257 314.471 37.8196 313.566 38.0004C312.707 38.1813 311.577 38.3621 310.176 38.543C308.277 38.769 306.74 39.0629 305.564 39.4246C304.434 39.741 303.462 40.3514 302.648 41.2556C301.834 42.1146 301.427 43.3805 301.427 45.0533Z" fill="white"/>
<path d="M285.102 6.5332V54.0044H276.286V6.5332H285.102Z" fill="white"/>
<path d="M254.242 19.8936C258.491 19.8936 262.063 20.9334 264.957 23.0131C267.895 25.0476 269.365 28.4384 269.365 33.1855V54.005H260.549V48.7832C258.921 50.682 256.954 52.1514 254.649 53.1912C252.343 54.1859 250.014 54.6832 247.664 54.6832C244.725 54.6832 242.261 53.8694 240.272 52.2418C238.327 50.569 237.355 48.1728 237.355 45.0533C237.355 42.1146 238.101 39.8993 239.593 38.4073C241.085 36.8702 242.849 35.8755 244.883 35.4234C246.918 34.9713 249.54 34.6096 252.75 34.3384C255.553 34.1123 257.542 33.8411 258.718 33.5246C259.938 33.1629 260.549 32.4169 260.549 31.2866C260.549 29.433 259.961 28.1445 258.785 27.4211C257.655 26.6978 256.276 26.3361 254.649 26.3361C252.976 26.3361 251.393 26.743 249.901 27.5568C248.409 28.3253 247.46 29.8851 247.053 32.2361L238.712 30.405C239.254 26.7882 241.018 24.1434 244.001 22.4706C247.031 20.7526 250.444 19.8936 254.242 19.8936ZM246.172 45.0533C246.172 46.4548 246.669 47.5851 247.664 48.4441C248.703 49.2579 249.992 49.6648 251.529 49.6648C252.976 49.6648 254.377 49.2353 255.734 48.3763C257.135 47.5173 258.288 46.1836 259.192 44.3751C260.096 42.5667 260.549 40.3288 260.549 37.6614V37.1188C259.961 37.5257 259.215 37.8196 258.311 38.0004C257.452 38.1813 256.321 38.3621 254.92 38.543C253.021 38.769 251.484 39.0629 250.308 39.4246C249.178 39.741 248.206 40.3514 247.392 41.2556C246.578 42.1146 246.172 43.3805 246.172 45.0533Z" fill="white"/>
<path d="M207.572 58.8157C206.17 62.9751 204.384 65.8686 202.214 67.4962C200.089 69.1238 197.445 69.9376 194.28 69.9376H192.449V62.2065H194.28C195.455 62.2065 196.314 62.1387 196.857 62.0031C197.399 61.8674 197.852 61.5736 198.213 61.1215C198.575 60.6694 198.959 59.9008 199.366 58.8157L201.061 53.933L188.38 20.0928H197.806L205.198 41.8617L212.658 20.0928H222.084L207.572 58.8157Z" fill="white"/>
<path d="M185.801 54.0008H156.979V46.6088L175.697 27.4847H157.522V20.0928H185.598V27.4847L166.881 46.6088H185.801V54.0008Z" fill="white"/>
<path d="M136.609 19.8936C140.859 19.8936 144.43 20.9334 147.324 23.0131C150.262 25.0476 151.732 28.4384 151.732 33.1855V54.005H142.916V48.7832C141.288 50.682 139.321 52.1514 137.016 53.1912C134.71 54.1859 132.382 54.6832 130.031 54.6832C127.092 54.6832 124.628 53.8694 122.639 52.2418C120.695 50.569 119.723 48.1728 119.723 45.0533C119.723 42.1146 120.469 39.8993 121.961 38.4073C123.453 36.8702 125.216 35.8755 127.25 35.4234C129.285 34.9713 131.907 34.6096 135.117 34.3384C137.92 34.1123 139.909 33.8411 141.085 33.5246C142.305 33.1629 142.916 32.4169 142.916 31.2866C142.916 29.433 142.328 28.1445 141.153 27.4211C140.022 26.6978 138.643 26.3361 137.016 26.3361C135.343 26.3361 133.761 26.743 132.269 27.5568C130.777 28.3253 129.827 29.8851 129.42 32.2361L121.079 30.405C121.622 26.7882 123.385 24.1434 126.369 22.4706C129.398 20.7526 132.811 19.8936 136.609 19.8936ZM128.539 45.0533C128.539 46.4548 129.036 47.5851 130.031 48.4441C131.071 49.2579 132.359 49.6648 133.896 49.6648C135.343 49.6648 136.744 49.2353 138.101 48.3763C139.502 47.5173 140.655 46.1836 141.559 44.3751C142.464 42.5667 142.916 40.3288 142.916 37.6614V37.1188C142.328 37.5257 141.582 37.8196 140.678 38.0004C139.819 38.1813 138.689 38.3621 137.287 38.543C135.388 38.769 133.851 39.0629 132.676 39.4246C131.545 39.741 130.573 40.3514 129.759 41.2556C128.946 42.1146 128.539 43.3805 128.539 45.0533Z" fill="white"/>
<path d="M115.427 6.5332V54.0044H106.611V6.5332H115.427Z" fill="white"/>
</svg>
